<svg width="332" height="332" viewBox="0 0 332 332" fill="none" xmlns="http://www.w3.org/2000/svg">
<path d="M242.603 331.04C229.723 330.945 216.898 329.328 204.397 326.223C161.226 315.807 116.771 289.384 79.2404 251.821C41.7098 214.257 15.254 169.794 4.83795 126.664C-6.12974 81.2945 1.69256 42.4794 26.8392 17.3328L34.0193 10.1527C40.5337 3.65134 49.3613 0 58.5649 0C67.7684 0 76.596 3.65134 83.1104 10.1527L124.371 51.4051C130.876 57.9174 134.531 66.7458 134.531 75.9507C134.531 85.1555 130.876 93.984 124.371 100.496L99.9984 124.861C111.682 145.363 127.574 165.883 146.356 184.664C165.138 203.446 185.673 219.346 206.168 231.03L230.532 206.657C233.755 203.433 237.582 200.876 241.793 199.131C246.005 197.386 250.519 196.488 255.078 196.488C259.636 196.488 264.151 197.386 268.362 199.131C272.574 200.876 276.4 203.433 279.623 206.657L320.876 247.91C327.383 254.419 331.038 263.247 331.038 272.451C331.038 281.655 327.383 290.483 320.876 296.993L313.687 304.173C295.96 321.933 271.422 331.04 242.603 331.04ZM58.5649 24.6857C57.2502 24.6792 55.9474 24.9351 54.7329 25.4385C53.5184 25.9418 52.4165 26.6825 51.4918 27.617L44.3036 34.7971C25.4724 53.6283 19.9721 84.2011 28.8154 120.834C38.1774 159.641 62.2784 199.963 96.6718 234.348C131.065 268.733 171.379 292.81 210.194 302.205C246.835 311.048 277.392 305.548 296.223 286.717L303.403 279.537C305.279 277.659 306.333 275.113 306.333 272.459C306.333 269.805 305.279 267.26 303.403 265.382L262.159 224.13C260.281 222.254 257.736 221.2 255.082 221.2C252.428 221.2 249.882 222.254 248.005 224.13L217.119 255.016C215.266 256.87 212.87 258.086 210.28 258.489C207.689 258.892 205.038 258.46 202.709 257.255C177.39 244.163 151.864 225.101 128.892 202.129C105.919 179.156 86.8981 153.647 73.7731 128.327C72.5678 125.999 72.1343 123.348 72.5355 120.758C72.9366 118.168 74.1515 115.772 76.0045 113.918L106.898 83.0319C108.774 81.1544 109.828 78.6089 109.828 75.9548C109.828 73.3007 108.774 70.7551 106.898 68.8776L65.6461 27.617C64.7185 26.6841 63.615 25.9445 62.3994 25.4414C61.1838 24.9382 59.8804 24.6813 58.5649 24.6857V24.6857Z" fill="white"/>
<path d="M255.794 182.556C252.518 182.556 249.377 181.255 247.061 178.939C244.744 176.622 243.443 173.481 243.443 170.205C243.419 148.538 234.802 127.764 219.481 112.442C204.161 97.1202 183.388 88.5006 161.721 88.4745C158.445 88.4745 155.303 87.1732 152.987 84.857C150.671 82.5407 149.37 79.3992 149.37 76.1235C149.37 72.8478 150.671 69.7063 152.987 67.39C155.303 65.0737 158.445 63.7725 161.721 63.7725C220.404 63.7725 268.145 111.53 268.145 170.205C268.145 173.481 266.844 176.622 264.528 178.939C262.211 181.255 259.07 182.556 255.794 182.556Z" fill="white"/>
<path d="M307.998 182.556C304.722 182.556 301.58 181.255 299.264 178.939C296.948 176.622 295.647 173.481 295.647 170.205C295.647 96.3544 235.538 36.2709 161.721 36.2709C158.445 36.2709 155.303 34.9696 152.987 32.6533C150.671 30.3371 149.37 27.1956 149.37 23.9199C149.37 20.6442 150.671 17.5026 152.987 15.1864C155.303 12.8701 158.445 11.5688 161.721 11.5688C249.19 11.5688 320.349 82.7354 320.349 170.205C320.349 173.481 319.047 176.622 316.731 178.939C314.415 181.255 311.273 182.556 307.998 182.556Z" fill="white"/>
</svg>
