<svg width="33" height="40" viewBox="0 0 33 40" fill="none" xmlns="http://www.w3.org/2000/svg">
<path d="M31.7642 13.6358C31.529 13.8173 27.4018 16.1245 27.4018 21.2573C27.4018 27.1938 32.6522 29.2937 32.809 29.3454C32.7829 29.4749 31.9731 32.2229 30.04 35.0226C28.3161 37.4854 26.5135 39.948 23.7708 39.948C21.0282 39.948 20.3228 38.3667 17.162 38.3667C14.0796 38.3667 12.9825 40 10.4747 40C7.96703 40 6.21681 37.7186 4.20558 34.9189C1.88073 31.6265 0 26.5196 0 21.6719C0 13.8948 5.09384 9.77284 10.109 9.77284C12.7736 9.77284 14.9937 11.5098 16.6655 11.5098C18.2589 11.5098 20.7406 9.66918 23.7706 9.66918C24.9201 9.66943 29.0475 9.77334 31.7642 13.6358ZM22.3342 6.37726C23.588 4.8996 24.4762 2.85166 24.4762 0.803715C24.4762 0.518574 24.4502 0.233434 24.3978 0C22.3603 0.0778112 19.931 1.34814 18.4681 3.03313C17.3188 4.32932 16.2477 6.37726 16.2477 8.45131C16.2477 8.7623 16.3 9.07354 16.3261 9.17721C16.4566 9.20306 16.6658 9.22917 16.8747 9.22917C18.7033 9.22892 21.0019 8.01054 22.3342 6.37726Z" fill="white"/>
</svg>
