<svg width="50" height="30" viewBox="0 0 50 30" fill="none" xmlns="http://www.w3.org/2000/svg">
<path d="M24.9986 30C23.6425 30 22.3676 29.4723 21.4086 28.5169L1.48422 8.64299C-0.494739 6.66927 -0.494739 3.45684 1.48422 1.48313C2.44324 0.526651 3.71807 0 5.07541 0C6.43275 0 7.70758 0.526651 8.66538 1.48313L24.9986 17.7753L41.333 1.48313C42.292 0.526651 43.5658 0 44.923 0C46.2801 0 47.5539 0.526651 48.5129 1.48313C49.473 2.43961 50 3.71107 50 5.06358C50 6.4161 49.472 7.68756 48.5129 8.64404L28.5896 28.5135C27.6295 29.4733 26.3535 30 24.9986 30ZM5.07524 2.25052C4.32161 2.25052 3.61309 2.54308 3.07943 3.07411C1.97944 4.17118 1.97944 5.95581 3.07943 7.05183L23.0038 26.9247C24.0599 27.978 25.8886 27.9914 26.9572 26.9572L46.9153 7.052C47.4489 6.51975 47.741 5.81417 47.741 5.06253C47.741 4.3109 47.4477 3.60532 46.9153 3.07306C45.8492 2.01083 43.9931 2.01083 42.927 3.07306L24.9986 20.9575L7.06999 3.07429C6.53632 2.54308 5.82886 2.25052 5.07524 2.25052Z" fill="#689775"/>
</svg>
