<svg width="16" height="10" viewBox="0 0 16 10" fill="none" xmlns="http://www.w3.org/2000/svg">
<path d="M7.99954 9.6255C7.56559 9.6255 7.15764 9.45619 6.85075 9.14964L0.47495 2.7731C-0.158317 2.13984 -0.158317 1.10913 0.47495 0.475863C0.781836 0.168976 1.18978 0 1.62413 0C2.05848 0 2.46643 0.168976 2.77292 0.475863L7.99954 5.70322L13.2266 0.475863C13.5334 0.168976 13.9411 0 14.3753 0C14.8096 0 15.2173 0.168976 15.5241 0.475863C15.8314 0.782749 16 1.1907 16 1.62465C16 2.05861 15.831 2.46655 15.5241 2.77344L9.14867 9.14857C8.84145 9.45652 8.43311 9.6255 7.99954 9.6255ZM1.62408 0.72208C1.38291 0.72208 1.15619 0.815949 0.985416 0.986329C0.633421 1.33832 0.633421 1.91092 0.985416 2.26258L7.36122 8.63878C7.69917 8.97673 8.28435 8.98106 8.62629 8.64923L15.0129 2.26264C15.1837 2.09186 15.2771 1.86548 15.2771 1.62431C15.2771 1.38315 15.1833 1.15677 15.0129 0.985992C14.6717 0.645176 14.0778 0.645176 13.7366 0.985992L7.99954 6.72421L2.2624 0.986385C2.09162 0.815949 1.86524 0.72208 1.62408 0.72208Z" fill="white"/>
</svg>
