<svg width="512" height="512" viewBox="0 0 512 512" fill="none" xmlns="http://www.w3.org/2000/svg">
<path d="M256 0C114.62 0 0 114.62 0 256C0 397.38 114.62 512 256 512C397.38 512 512 397.38 512 256C512 114.62 397.38 0 256 0ZM479.43 240H393.35C393.25 232.62 392.867 225.253 392.2 217.9C389.334 187.145 381.696 157.024 369.56 128.62C389.622 124.831 409.424 119.781 428.85 113.5C458.499 149.354 476.186 193.588 479.43 240ZM177.08 129.57C197.905 133.115 218.911 135.505 240 136.73V240H150.67C150.763 233.707 151.097 227.433 151.67 221.18C154.74 186.05 164.94 155.14 177.08 129.57ZM272 41.41C290.763 59.9247 307.145 80.7047 320.77 103.27C310.65 104.25 300.433 104.917 290.12 105.27C284.12 105.49 278.08 105.6 272 105.6V41.41ZM240 41.41V104.66C224.507 103.713 208.96 102.077 193.36 99.75C197.11 93.69 200.85 88.13 204.43 83.1C215.04 68.1894 226.943 54.2422 240 41.42V41.41ZM240 272V375.28C222 376.32 203.917 378.237 185.75 381.03C167.21 344.41 156.007 308.077 152.14 272.03L240 272ZM240 407.33V464C226.402 447.136 213.877 429.435 202.5 411C215.033 409.327 227.533 408.103 240 407.33ZM272 406.33C278.053 406.33 284.093 406.44 290.12 406.66C297.25 406.91 304.33 407.34 311.36 407.89C299.502 427.448 286.353 446.193 272 464V406.33ZM291.27 374.68C284.863 374.453 278.44 374.337 272 374.33V272H359.86C356.147 306.793 345.563 341.897 328.11 377.31C315.963 376.03 303.683 375.16 291.27 374.7V374.68ZM272 240V137.65C278.427 137.65 284.85 137.533 291.27 137.3C306.67 136.747 321.873 135.543 336.88 133.69C349.588 161.173 357.518 190.622 360.33 220.77C360.91 227.17 361.243 233.58 361.33 240H272ZM403.8 87.69C387.764 92.2332 371.493 95.9052 355.06 98.69C348.384 86.5077 340.974 74.7426 332.87 63.46C326.41 54.46 320.04 46.46 314.11 39.59C347.317 48.4888 378.015 64.9516 403.8 87.69ZM197.89 39.61C191.96 46.52 185.59 54.5 179.13 63.48C172.136 73.2093 165.654 83.2963 159.71 93.7C144.69 90.52 129.643 86.7133 114.57 82.28C139.009 62.3178 167.409 47.7736 197.89 39.61ZM88.2 107.61C107.067 113.73 125.923 118.917 144.77 123.17C131.32 153.166 122.875 185.163 119.77 217.89C119.103 225.223 118.72 232.59 118.62 239.99H32.57C35.9972 190.937 55.5568 144.395 88.2 107.62V107.61ZM32.57 272H120C123.62 310.187 134.637 348.52 153.05 387C131.163 391.646 109.536 397.444 88.26 404.37C55.595 367.603 36.014 321.061 32.57 272ZM114.57 429.72C132.57 424.387 150.57 419.983 168.57 416.51C180.33 436.792 193.433 456.265 207.79 474.8C173.612 467.298 141.681 451.855 114.58 429.72H114.57ZM304.22 474.8C319.683 454.859 333.677 433.82 346.09 411.85C365.572 414.772 384.848 418.933 403.8 424.31C375.429 449.317 341.16 466.693 304.22 474.8ZM428.85 398.5C406.791 391.37 384.25 385.83 361.4 381.92C378.353 345.187 388.57 308.547 392.05 272H479.43C476.186 318.412 458.499 362.646 428.85 398.5Z" fill="#E6E6E6"/>
</svg>
