<svg width="225" height="250" viewBox="0 0 225 250" fill="none" xmlns="http://www.w3.org/2000/svg">
<path d="M112.487 0V88.75C127.525 93.75 137.55 107.5 137.55 123.75C137.55 130 136.297 136.25 132.538 141.25L157.6 161.25C158.854 161.25 160.107 160 162.613 160C170.132 160 175.144 165 175.144 172.5C175.144 180 170.132 185 162.613 185C155.094 185 150.082 180 150.082 172.5V171.25L125.019 151.25C118.753 157.5 109.981 161.25 99.956 161.25C78.6527 161.25 62.3618 145 62.3618 123.75C62.3618 107.5 72.387 93.75 87.4246 88.75V1.25H86.1715C42.3116 6.25 5.97058 42.5 0.958027 87.5C-2.80139 115 4.71744 140 19.7551 160C31.0334 175 37.2991 191.25 37.2991 210V250H150.082V212.5H175.144C188.929 212.5 200.207 201.25 200.207 187.5V150L219.004 142.5C224.017 140 226.523 132.5 224.017 127.5L200.207 90C195.195 43.75 158.854 6.25 112.487 0ZM99.956 106.25C89.9309 106.25 81.1589 115 81.1589 125C81.1589 135 89.9309 143.75 99.956 143.75C109.981 143.75 118.753 135 118.753 125C118.753 115 109.981 106.25 99.956 106.25Z" fill="white"/>
</svg>
