<svg width="264" height="250" viewBox="0 0 264 250" fill="none" xmlns="http://www.w3.org/2000/svg">
<path d="M166.063 243.044C161.492 239.682 161.001 234.63 161.001 234.63L159.286 223.665H104.619L102.899 234.622C102.899 234.622 102.421 239.679 97.8476 243.041C93.2766 246.403 89.669 249.291 93.2766 249.781C96.7523 250.251 129.538 249.824 131.955 249.781C134.378 249.824 167.156 250.251 170.629 249.781C174.234 249.296 170.624 246.414 166.063 243.044Z" fill="white"/>
<path d="M70.3745 155.449C84.9794 155.336 86.7977 151.815 91.5587 137.152C100.339 114.013 139.878 143.212 115.374 153.346C90.8698 163.485 55.7697 155.563 70.3745 155.449Z" fill="white"/>
<path d="M220.128 2.95646C213.034 -2.75457 201.298 0.0587187 193.901 9.23753L118.976 115.689C111.579 124.865 111.616 123.112 118.702 128.818C125.788 134.529 124.08 134.938 131.478 125.762L219.561 29.9176C226.958 20.7335 227.217 8.66485 220.128 2.95646ZM200.86 15.6981C200.86 15.6981 199.762 14.4234 196.112 11.5045C201.586 2.56587 212.343 4.20475 212.343 4.20475C202.145 10.2272 200.86 15.6981 200.86 15.6981Z" fill="white"/>
<path d="M253.354 38.9277H220.408L205.853 54.7624H248.079V181.439H15.8373V54.7624H150.933L162.089 38.9277H10.5564C4.72664 38.9277 0 43.6544 0 49.4842V202.552C0 208.382 4.72664 213.109 10.5564 213.109H253.354C259.184 213.109 263.911 208.382 263.911 202.552V49.4842C263.911 43.6544 259.184 38.9277 253.354 38.9277Z" fill="white"/>
</svg>
