<svg width="246" height="250" viewBox="0 0 246 250" fill="none" xmlns="http://www.w3.org/2000/svg">
<path d="M244.62 1.22191C242.99 -0.407304 240.357 -0.407304 238.728 1.22191L223.281 16.6682H126.266L4.30429 139.634C1.52921 142.409 0 146.105 0 150.03C0 153.956 1.52921 157.651 4.30429 160.427L89.5818 245.704C92.4444 248.567 96.1986 250 99.9612 250C103.741 250 107.52 248.554 110.416 245.662L229.173 123.696V22.56L244.62 7.11375C246.249 5.48453 246.249 2.85112 244.62 1.22191ZM220.84 120.313L104.482 239.812C101.999 242.296 97.957 242.296 95.4736 239.812L10.1961 154.535C7.71272 152.051 7.71272 148.01 10.2086 145.514L129.741 25.0018H214.948L194.81 45.1399C191.514 42.9565 187.576 41.6689 183.339 41.6689C171.851 41.6689 162.505 51.015 162.505 62.5029C162.505 73.9907 171.851 83.3368 183.339 83.3368C194.827 83.3368 204.173 73.9907 204.173 62.5029C204.173 58.2652 202.885 54.3276 200.702 51.0317L220.84 30.8936V120.313ZM195.839 62.5029C195.839 69.3947 190.231 75.0032 183.339 75.0032C176.447 75.0032 170.838 69.3947 170.838 62.5029C170.838 55.611 176.447 50.0025 183.339 50.0025C185.264 50.0025 187.064 50.4775 188.693 51.2567L180.393 59.5569C178.764 61.1862 178.764 63.8196 180.393 65.4488C181.205 66.2613 182.272 66.6696 183.339 66.6696C184.405 66.6696 185.472 66.2613 186.285 65.4488L194.585 57.1485C195.368 58.7778 195.839 60.5778 195.839 62.5029Z" fill="white"/>
<path d="M173.951 130.342L129.758 174.539C128.129 176.168 128.129 178.802 129.758 180.431C130.571 181.243 131.637 181.652 132.704 181.652C133.771 181.652 134.837 181.243 135.65 180.431L179.843 136.234C181.472 134.605 181.472 131.971 179.843 130.342C178.214 128.713 175.58 128.717 173.951 130.342Z" fill="white"/>
<path d="M188.672 115.587C187.918 116.375 187.464 117.458 187.464 118.546C187.464 119.671 187.918 120.75 188.672 121.504C189.46 122.292 190.543 122.713 191.63 122.713C192.714 122.713 193.797 122.292 194.543 121.504C195.335 120.75 195.797 119.671 195.797 118.546C195.797 117.458 195.339 116.375 194.543 115.587C193.001 114.046 190.255 114.046 188.672 115.587Z" fill="white"/>
<path d="M153.326 80.2534C154.955 78.6242 154.955 75.9908 153.326 74.3616C151.696 72.7323 149.063 72.7323 147.434 74.3616L103.237 118.559C101.607 120.188 101.607 122.821 103.237 124.451C104.049 125.263 105.116 125.671 106.182 125.671C107.249 125.671 108.316 125.263 109.128 124.451L153.326 80.2534Z" fill="white"/>
<path d="M138.596 130.342C139.408 131.155 140.475 131.563 141.542 131.563C142.608 131.563 143.675 131.155 144.488 130.342L173.951 100.879C175.58 99.2494 175.58 96.616 173.951 94.9868C172.322 93.3576 169.688 93.3576 168.059 94.9868L138.596 124.45C136.966 126.079 136.966 128.717 138.596 130.342Z" fill="white"/>
<path d="M115.024 148.018L109.132 153.91C107.503 155.539 107.503 158.173 109.132 159.802C109.945 160.614 111.011 161.023 112.078 161.023C113.145 161.023 114.212 160.614 115.024 159.802L120.916 153.91C122.545 152.281 122.545 149.647 120.916 148.018C119.287 146.389 116.649 146.393 115.024 148.018Z" fill="white"/>
<path d="M70.8272 119.775C71.8939 119.775 72.9606 119.367 73.7732 118.554L117.966 74.3611C119.595 72.7319 119.595 70.0984 117.966 68.4692C116.337 66.84 113.703 66.84 112.074 68.4692L67.8813 112.662C66.2521 114.291 66.2521 116.925 67.8813 118.554C68.6939 119.367 69.7606 119.775 70.8272 119.775Z" fill="white"/>
<path d="M129.754 60.8362C130.837 60.8362 131.925 60.4195 132.712 59.6278C133.466 58.8403 133.921 57.7986 133.921 56.6694C133.921 55.586 133.466 54.5026 132.671 53.7109C131.129 52.1692 128.379 52.1692 126.795 53.7526C126.045 54.5068 125.587 55.586 125.587 56.6694C125.587 57.7527 126.045 58.8403 126.795 59.6278C127.587 60.4195 128.67 60.8362 129.754 60.8362Z" fill="white"/>
<path d="M91.4612 130.338C90.6695 131.125 90.2528 132.167 90.2528 133.296C90.2528 134.421 90.6695 135.463 91.4612 136.209C92.2112 137.001 93.2904 137.463 94.4196 137.463C95.503 137.463 96.5863 137.005 97.3322 136.255C98.1239 135.463 98.5864 134.38 98.5864 133.296C98.5864 132.209 98.128 131.125 97.3322 130.338C95.7946 128.796 92.9987 128.796 91.4612 130.338Z" fill="white"/>
<path d="M132.712 142.127C133.466 141.377 133.921 140.297 133.921 139.168C133.921 138.085 133.466 137.001 132.712 136.21C131.129 134.668 128.379 134.668 126.795 136.21C126.045 137.001 125.587 138.085 125.587 139.168C125.587 140.297 126.045 141.339 126.795 142.127C127.587 142.918 128.67 143.335 129.754 143.335C130.837 143.335 131.921 142.922 132.712 142.127Z" fill="white"/>
<path d="M100.636 198.452C103.199 194.581 104.424 189.948 104.028 185.235C103.703 181.302 101.807 177.748 98.6942 175.223C95.5066 172.643 91.3232 171.46 87.2856 171.968L75.6102 173.427L59.5848 157.401C64.2266 155.197 69.9392 155.968 73.7768 159.805C75.4061 161.435 78.0395 161.435 79.6687 159.805C81.2979 158.176 81.2979 155.543 79.6687 153.914C72.556 146.801 61.5348 145.922 53.4471 151.268L50.2011 148.022C48.5719 146.393 45.9385 146.393 44.3093 148.022C42.6801 149.651 42.6801 152.284 44.3093 153.914L47.5636 157.168C45.0052 161.035 43.7801 165.672 44.176 170.385C44.501 174.314 46.3969 177.873 49.5053 180.393C52.6929 182.973 56.8513 184.16 60.9181 183.656L72.5935 182.198L88.5773 198.182C83.948 200.269 78.1186 199.507 74.4269 195.815C72.7976 194.186 70.1642 194.186 68.535 195.815C66.9058 197.44 66.9058 200.077 68.535 201.707C72.4643 205.64 77.6978 207.811 83.2646 207.811C87.4147 207.811 91.3732 206.598 94.7524 204.357L97.3442 206.948C98.1567 207.761 99.2234 208.169 100.29 208.169C101.357 208.169 102.424 207.761 103.236 206.948C104.865 205.319 104.865 202.686 103.236 201.057L100.636 198.452ZM59.8848 175.389C58.0597 175.614 56.1805 175.089 54.7555 173.922C53.4262 172.839 52.6137 171.339 52.4762 169.689C52.2929 167.456 52.7679 165.276 53.7054 163.306L65.1307 174.731L59.8848 175.389ZM88.3189 180.235C90.1231 179.989 92.0107 180.535 93.4399 181.698C94.7733 182.781 95.5858 184.281 95.7233 185.931C95.9067 188.165 95.4316 190.344 94.4899 192.315L83.0688 180.894L88.3189 180.235Z" fill="white"/>
</svg>
