<svg width="182" height="250" viewBox="0 0 182 250" fill="none" xmlns="http://www.w3.org/2000/svg">
<path d="M147.727 136.364H34.0909V147.727H147.727V136.364Z" fill="white"/>
<path d="M147.727 170.454H34.0909V181.818H147.727V170.454Z" fill="white"/>
<path d="M102.273 34.0908H34.0909V45.4545H102.273V34.0908Z" fill="white"/>
<path d="M147.727 204.546H34.0909V215.909H147.727V204.546Z" fill="white"/>
<path d="M147.727 102.273H34.0909V113.636H147.727V102.273Z" fill="white"/>
<path d="M176.307 250C176.307 250 181.818 250 181.818 244.443V50L132.227 0H5.51136C5.51136 0 0 0 0 5.55682V244.432C0 250 5.51136 250 5.51136 250H176.307ZM11.3636 11.3636H125V45.4545C125 56.8182 136.364 56.8182 136.364 56.8182H170.455V238.636H11.3636V11.3636Z" fill="white"/>
<path d="M147.727 68.1816H34.0909V79.5453H147.727V68.1816Z" fill="white"/>
</svg>
